# This file uses centimeters as units for non-parametric coordinates.

mtllib sm_K10_DiceSet_01.mtl
g default
v -0.003039 1.961244 -0.077764
v -0.074242 1.961677 -0.024279
v -0.044235 1.960437 0.062394
v 0.044111 1.960686 0.062664
v 0.070073 1.961543 -0.024076
v -0.000086 1.967163 0.066488
v -0.063004 1.967289 0.021031
v 0.061447 1.968502 0.020304
v 0.035388 1.967724 -0.054378
v -0.041404 1.967937 -0.053943
v -0.001237 1.990283 0.000227
v 0.043400 0.116474 -0.062185
v -0.044805 0.114993 -0.062833
v -0.073977 0.113919 0.023780
v -0.002453 0.114540 0.077176
v 0.071001 0.113073 0.023434
v -0.040307 0.107877 0.054150
v -0.063993 0.107266 -0.020783
v 0.036988 0.107200 0.053654
v 0.061058 0.107839 -0.022132
v -0.000940 0.109985 -0.066494
v -0.000936 0.083436 -0.000485
v -0.856125 1.148992 -0.375188
v -0.905343 1.149580 -0.211471
v -0.906409 1.044631 -0.214535
v -0.860294 1.043150 -0.372503
v -0.629490 0.926406 -0.708102
v -0.493069 0.926670 -0.811202
v -0.497109 1.032357 -0.811146
v -0.628671 1.033778 -0.711657
v -0.896627 1.030852 0.220360
v -0.843633 1.032167 0.376311
v -0.841871 0.925706 0.379072
v -0.894505 0.926772 0.217315
v -0.596252 1.149633 0.713881
v -0.458347 1.149498 0.813699
v -0.462273 1.043793 0.813583
v -0.595741 1.043976 0.716779
v -0.058909 1.033020 0.946065
v 0.105396 1.033007 0.946117
v 0.108933 0.926531 0.944136
v -0.062667 0.925392 0.944762
v 0.484272 1.148565 0.816082
v 0.621849 1.150257 0.712685
v 0.619768 1.042840 0.716295
v 0.487872 1.042528 0.816308
v 0.860122 1.032514 0.366717
v 0.906408 1.032817 0.208123
v 0.904655 0.926500 0.205333
v 0.856630 0.924580 0.369372
v 0.895239 1.150454 -0.209953
v 0.840791 1.150609 -0.372322
v 0.843620 1.043438 -0.370665
v 0.896236 1.043848 -0.213783
v 0.587815 1.032776 -0.721610
v 0.452970 1.032620 -0.817830
v 0.449085 0.926074 -0.818107
v 0.587654 0.925503 -0.718331
v 0.065369 1.149008 -0.943952
v -0.105865 1.150173 -0.943466
v -0.101718 1.043091 -0.946608
v 0.063343 1.043070 -0.946630
vt 0.654258 0.249532
vt 0.649329 0.251108
vt 0.652791 0.246116
vt 0.649307 0.246014
vt 0.652320 0.255246
vt 0.655320 0.253100
vt 0.643656 0.253039
vt 0.646318 0.255352
vt 0.649375 0.257353
vt 0.644478 0.249523
vt 0.645728 0.246147
vt 0.847749 0.132061
vt 0.844029 0.134455
vt 0.844469 0.127142
vt 0.840657 0.131893
vt 0.850367 0.125424
vt 0.851456 0.129580
vt 0.840597 0.121073
vt 0.844877 0.121150
vt 0.849040 0.121338
vt 0.838823 0.125122
vt 0.837341 0.129155
vt 0.682770 0.162511
vt 0.654300 0.150491
vt 0.543324 0.121091
vt 0.549536 0.024977
vt 0.547247 0.121148
vt 0.579625 0.036457
vt 0.639599 0.121007
vt 0.606255 0.037309
vt 0.643884 0.121040
vt 0.637382 0.025050
vt 0.611346 0.163938
vt 0.642464 0.150517
vt 0.748050 0.247866
vt 0.744523 0.247883
vt 0.741225 0.152150
vt 0.710192 0.165756
vt 0.539027 0.121060
vt 0.505582 0.037451
vt 0.536926 0.025035
vt 0.751526 0.247861
vt 0.781576 0.164327
vt 0.753094 0.152529
vt 0.945136 0.121127
vt 0.951076 0.024942
vt 0.949067 0.121183
vt 0.981565 0.036330
vt 0.845049 0.247878
vt 0.841521 0.247896
vt 0.838287 0.152205
vt 0.807192 0.165768
vt 0.940842 0.121092
vt 0.938617 0.024993
vt 0.907657 0.037401
vt 0.850044 0.152465
vt 0.848521 0.247874
vt 0.878566 0.164336
vt 0.883135 0.037125
vt 0.852599 0.025124
vt 0.941799 0.247886
vt 0.907509 0.165785
vt 0.945403 0.247873
vt 0.938587 0.152151
vt 0.840345 0.024929
vt 0.809015 0.036712
vt 0.950354 0.152482
vt 0.948893 0.247858
vt 0.978885 0.164315
vt 0.748295 0.121189
vt 0.744358 0.121122
vt 0.780881 0.036324
vt 0.750019 0.024937
vt 0.541281 0.247927
vt 0.506921 0.165783
vt 0.544807 0.247909
vt 0.537949 0.152327
vt 0.740081 0.121088
vt 0.737830 0.024988
vt 0.706738 0.037397
vt 0.548282 0.247904
vt 0.578357 0.164364
vt 0.550023 0.152374
vt 0.647821 0.121097
vt 0.680404 0.036372
vt 0.649745 0.025028
vt 0.694231 0.167062
vt 0.696687 0.159793
vt 0.683484 0.155921
vt 0.642473 0.143577
vt 0.654769 0.144054
vt 0.741348 0.145469
vt 0.753631 0.145755
vt 0.793040 0.168873
vt 0.795408 0.161561
vt 0.782295 0.157736
vt 0.850636 0.145804
vt 0.838296 0.145457
vt 0.890030 0.168888
vt 0.892416 0.161590
vt 0.879293 0.157747
vt 0.950951 0.145780
vt 0.938608 0.145467
vt 0.979605 0.157733
vt 0.990346 0.168862
vt 0.992703 0.161512
vt 0.538113 0.145426
vt 0.550303 0.145880
vt 0.589813 0.168916
vt 0.592267 0.161621
vt 0.579064 0.157777
vt 0.709617 0.158653
vt 0.806627 0.158664
vt 0.906931 0.158636
vt 0.506408 0.158711
vt 0.610830 0.156895
vt 0.592849 0.044267
vt 0.994418 0.044364
vt 0.895892 0.045354
vt 0.793810 0.044130
vt 0.693331 0.044332
vn -0.356777 0.933795 -0.027164
vn -0.356777 0.933795 -0.027164
vn -0.356777 0.933795 -0.027164
vn -0.404366 0.895810 -0.184423
vn -0.412755 0.909954 -0.040218
vn -0.412755 0.909954 -0.040218
vn -0.185855 0.878819 0.439471
vn -0.412755 0.909954 -0.040218
vn -0.185855 0.878819 0.439471
vn 0.470268 0.880952 -0.052655
vn -0.412755 0.909954 -0.040218
vn 0.470268 0.880952 -0.052655
vn 0.070508 0.887627 0.455134
vn -0.412755 0.909954 -0.040218
vn -0.185855 0.878819 0.439471
vn 0.470268 0.880952 -0.052655
vn -0.412755 0.909954 -0.040218
vn 0.070508 0.887627 0.455134
vn 0.355387 0.882940 -0.306785
vn -0.412755 0.909954 -0.040218
vn 0.470268 0.880952 -0.052655
vn -0.185855 0.878819 0.439471
vn -0.412755 0.909954 -0.040218
vn -0.412755 0.909954 -0.040218
vn 0.109762 0.895326 -0.431676
vn -0.412755 0.909954 -0.040218
vn 0.355387 0.882940 -0.306785
vn -0.404366 0.895810 -0.184423
vn -0.412755 0.909954 -0.040218
vn 0.109762 0.895326 -0.431676
vn -0.281108 -0.909939 -0.304942
vn -0.281108 -0.909939 -0.304942
vn -0.281108 -0.909939 -0.304942
vn -0.144846 -0.885658 -0.441169
vn -0.281108 -0.909939 -0.304942
vn -0.281108 -0.909939 -0.304942
vn -0.455807 -0.848696 0.268246
vn -0.455807 -0.848696 0.268246
vn -0.281108 -0.909939 -0.304942
vn 0.353541 -0.897205 0.264637
vn 0.353541 -0.897205 0.264637
vn -0.281108 -0.909939 -0.304942
vn -0.179700 -0.891067 0.416782
vn -0.455807 -0.848696 0.268246
vn -0.281108 -0.909939 -0.304942
vn 0.353541 -0.897205 0.264637
vn -0.179700 -0.891067 0.416782
vn -0.281108 -0.909939 -0.304942
vn 0.450003 -0.891769 -0.047390
vn 0.353541 -0.897205 0.264637
vn -0.281108 -0.909939 -0.304942
vn -0.455807 -0.848696 0.268246
vn -0.281108 -0.909939 -0.304942
vn -0.281108 -0.909939 -0.304942
vn 0.367013 -0.881733 -0.296393
vn 0.450003 -0.891769 -0.047390
vn -0.281108 -0.909939 -0.304942
vn -0.144846 -0.885658 -0.441169
vn 0.367013 -0.881733 -0.296393
vn -0.281108 -0.909939 -0.304942
vn -0.412755 0.909954 -0.040218
vn -0.404366 0.895810 -0.184423
vn -0.475357 0.679091 -0.559349
vn -0.475357 0.679091 -0.559349
vn -0.404366 0.895810 -0.184423
vn -0.475357 0.679091 -0.559349
vn -0.281108 -0.909939 -0.304942
vn -0.696947 -0.673910 -0.245174
vn -0.281108 -0.909939 -0.304942
vn -0.696947 -0.673910 -0.245174
vn -0.696947 -0.673910 -0.245174
vn -0.281108 -0.909939 -0.304942
vn -0.281108 -0.909939 -0.304942
vn -0.046527 -0.679881 -0.731845
vn -0.144846 -0.885658 -0.441169
vn -0.046527 -0.679881 -0.731845
vn -0.046527 -0.679881 -0.731845
vn -0.144846 -0.885658 -0.441169
vn 0.109762 0.895326 -0.431676
vn -0.408677 0.679718 -0.609070
vn -0.404366 0.895810 -0.184423
vn -0.408677 0.679718 -0.609071
vn -0.404366 0.895810 -0.184423
vn -0.408677 0.679718 -0.609070
vn -0.412755 0.909954 -0.040218
vn -0.412755 0.909954 -0.040218
vn -0.717037 0.667858 0.199559
vn -0.717037 0.667858 0.199559
vn -0.412755 0.909954 -0.040218
vn -0.717037 0.667858 0.199559
vn -0.455807 -0.848696 0.268246
vn -0.721849 -0.671315 -0.168137
vn -0.281108 -0.909939 -0.304942
vn -0.721849 -0.671315 -0.168137
vn -0.721849 -0.671315 -0.168137
vn -0.281108 -0.909939 -0.304942
vn -0.185855 0.878819 0.439471
vn -0.412755 0.909954 -0.040218
vn -0.690676 0.668912 0.274815
vn -0.690676 0.668912 0.274815
vn -0.412755 0.909954 -0.040218
vn -0.690676 0.668912 0.274815
vn -0.455807 -0.848696 0.268246
vn -0.467040 -0.671923 0.574798
vn -0.455807 -0.848696 0.268246
vn -0.467040 -0.671923 0.574798
vn -0.467040 -0.671923 0.574798
vn -0.455807 -0.848696 0.268246
vn -0.185855 0.878819 0.439471
vn -0.185855 0.878819 0.439471
vn -0.042108 0.678863 0.733057
vn -0.042108 0.678863 0.733057
vn -0.185855 0.878819 0.439471
vn -0.042108 0.678863 0.733057
vn -0.455807 -0.848696 0.268246
vn -0.179700 -0.891067 0.416782
vn -0.400999 -0.673163 0.621331
vn -0.179700 -0.891067 0.416782
vn -0.400999 -0.673163 0.621331
vn -0.400999 -0.673163 0.621331
vn -0.185855 0.878819 0.439471
vn 0.041290 0.679997 0.732051
vn 0.070508 0.887627 0.455134
vn 0.041290 0.679997 0.732051
vn 0.070508 0.887627 0.455134
vn 0.041290 0.679997 0.732051
vn -0.179700 -0.891067 0.416782
vn 0.353541 -0.897205 0.264637
vn 0.412987 -0.679923 0.605925
vn 0.353541 -0.897205 0.264637
vn 0.412987 -0.679923 0.605926
vn 0.412987 -0.679923 0.605925
vn 0.070508 0.887627 0.455134
vn 0.695896 0.673364 0.249619
vn 0.470268 0.880952 -0.052655
vn 0.695896 0.673364 0.249619
vn 0.470268 0.880952 -0.052655
vn 0.695896 0.673364 0.249619
vn 0.353541 -0.897205 0.264637
vn 0.353541 -0.897205 0.264637
vn 0.479369 -0.678698 0.556394
vn 0.353541 -0.897205 0.264637
vn 0.479369 -0.678698 0.556394
vn 0.479369 -0.678698 0.556394
vn 0.470268 0.880952 -0.052655
vn 0.720433 0.671667 0.172739
vn 0.470268 0.880952 -0.052655
vn 0.720433 0.671667 0.172739
vn 0.470268 0.880952 -0.052655
vn 0.720433 0.671667 0.172739
vn 0.353541 -0.897205 0.264637
vn 0.450003 -0.891769 -0.047390
vn 0.715487 -0.668045 -0.204435
vn 0.450003 -0.891769 -0.047390
vn 0.715487 -0.668045 -0.204435
vn 0.715487 -0.668045 -0.204435
vn 0.470268 0.880952 -0.052655
vn 0.471323 0.671686 -0.571570
vn 0.355387 0.882940 -0.306785
vn 0.471323 0.671686 -0.571570
vn 0.355387 0.882940 -0.306785
vn 0.471323 0.671686 -0.571570
vn 0.450003 -0.891769 -0.047390
vn 0.367013 -0.881733 -0.296393
vn 0.688639 -0.669176 -0.279247
vn 0.367013 -0.881733 -0.296393
vn 0.688639 -0.669176 -0.279247
vn 0.688639 -0.669176 -0.279247
vn 0.109762 0.895326 -0.431676
vn 0.355387 0.882940 -0.306785
vn 0.404992 0.673308 -0.618578
vn 0.404992 0.673308 -0.618578
vn 0.355387 0.882940 -0.306785
vn 0.404992 0.673308 -0.618578
vn 0.367013 -0.881733 -0.296393
vn -0.144846 -0.885658 -0.441169
vn 0.038213 -0.679530 -0.732652
vn -0.144846 -0.885658 -0.441169
vn 0.038213 -0.679530 -0.732652
vn 0.038213 -0.679530 -0.732652
vn -0.717037 0.667858 0.199559
vn -0.475357 0.679091 -0.559349
vn -0.721849 -0.671315 -0.168137
vn -0.721849 -0.671315 -0.168137
vn -0.475357 0.679091 -0.559349
vn -0.696947 -0.673910 -0.245174
vn -0.046527 -0.679881 -0.731845
vn -0.696947 -0.673910 -0.245174
vn -0.408677 0.679718 -0.609071
vn -0.408677 0.679718 -0.609071
vn -0.696947 -0.673910 -0.245174
vn -0.475357 0.679091 -0.559349
vn -0.717037 0.667858 0.199559
vn -0.721849 -0.671315 -0.168137
vn -0.690676 0.668912 0.274815
vn -0.690676 0.668912 0.274815
vn -0.721849 -0.671315 -0.168137
vn -0.467040 -0.671923 0.574798
vn -0.042108 0.678863 0.733057
vn -0.690676 0.668912 0.274815
vn -0.400999 -0.673163 0.621331
vn -0.400999 -0.673163 0.621331
vn -0.690676 0.668912 0.274815
vn -0.467040 -0.671923 0.574798
vn 0.041290 0.679997 0.732051
vn -0.042108 0.678863 0.733057
vn 0.412987 -0.679923 0.605925
vn 0.412987 -0.679923 0.605925
vn -0.042108 0.678863 0.733057
vn -0.400999 -0.673163 0.621331
vn 0.695896 0.673364 0.249619
vn 0.041290 0.679997 0.732051
vn 0.479369 -0.678698 0.556394
vn 0.479369 -0.678698 0.556394
vn 0.041290 0.679997 0.732051
vn 0.412987 -0.679923 0.605926
vn 0.720433 0.671667 0.172739
vn 0.695896 0.673364 0.249619
vn 0.715487 -0.668045 -0.204435
vn 0.715487 -0.668045 -0.204435
vn 0.695896 0.673364 0.249619
vn 0.479369 -0.678698 0.556394
vn 0.720433 0.671667 0.172739
vn 0.715487 -0.668045 -0.204435
vn 0.471323 0.671686 -0.571570
vn 0.471323 0.671686 -0.571570
vn 0.715487 -0.668045 -0.204435
vn 0.688639 -0.669176 -0.279247
vn 0.471323 0.671686 -0.571570
vn 0.688639 -0.669176 -0.279247
vn 0.404992 0.673308 -0.618578
vn 0.404992 0.673308 -0.618578
vn 0.688639 -0.669176 -0.279247
vn 0.038213 -0.679530 -0.732652
vn -0.408677 0.679718 -0.609070
vn 0.404992 0.673308 -0.618578
vn -0.046527 -0.679881 -0.731845
vn -0.046527 -0.679881 -0.731845
vn 0.404992 0.673308 -0.618578
vn 0.038213 -0.679530 -0.732652
vn -0.475357 0.679091 -0.559349
vn -0.475357 0.679091 -0.559349
vn -0.696947 -0.673910 -0.245174
vn -0.696947 -0.673910 -0.245174
vn -0.475357 0.679091 -0.559349
vn -0.696947 -0.673910 -0.245174
vn -0.721849 -0.671315 -0.168137
vn -0.717037 0.667858 0.199559
vn -0.721849 -0.671315 -0.168137
vn -0.721849 -0.671315 -0.168137
vn -0.717037 0.667858 0.199559
vn -0.717037 0.667858 0.199559
vn -0.690676 0.668912 0.274815
vn -0.690676 0.668912 0.274815
vn -0.467040 -0.671923 0.574798
vn -0.467040 -0.671923 0.574798
vn -0.690676 0.668912 0.274815
vn -0.467040 -0.671923 0.574798
vn -0.400999 -0.673163 0.621331
vn -0.042108 0.678863 0.733057
vn -0.400999 -0.673163 0.621331
vn -0.400999 -0.673163 0.621331
vn -0.042108 0.678863 0.733057
vn -0.042108 0.678863 0.733057
vn 0.041290 0.679997 0.732051
vn 0.041290 0.679997 0.732051
vn 0.412987 -0.679923 0.605926
vn 0.412987 -0.679923 0.605926
vn 0.041290 0.679997 0.732051
vn 0.412987 -0.679923 0.605925
vn 0.479369 -0.678698 0.556394
vn 0.695896 0.673364 0.249619
vn 0.479369 -0.678698 0.556394
vn 0.479369 -0.678698 0.556394
vn 0.695896 0.673364 0.249619
vn 0.695896 0.673364 0.249619
vn 0.720433 0.671667 0.172739
vn 0.720433 0.671667 0.172739
vn 0.715487 -0.668045 -0.204435
vn 0.715487 -0.668045 -0.204435
vn 0.720433 0.671667 0.172739
vn 0.715487 -0.668045 -0.204435
vn 0.688639 -0.669176 -0.279247
vn 0.471323 0.671686 -0.571570
vn 0.688639 -0.669176 -0.279247
vn 0.688639 -0.669176 -0.279247
vn 0.471323 0.671686 -0.571570
vn 0.471323 0.671686 -0.571570
vn 0.404992 0.673308 -0.618578
vn 0.404992 0.673308 -0.618578
vn 0.038213 -0.679530 -0.732652
vn 0.038213 -0.679530 -0.732652
vn 0.404992 0.673308 -0.618578
vn 0.038213 -0.679530 -0.732652
vn -0.408677 0.679718 -0.609070
vn -0.046527 -0.679881 -0.731845
vn -0.408677 0.679718 -0.609071
vn -0.408677 0.679718 -0.609071
vn -0.046527 -0.679881 -0.731845
vn -0.046527 -0.679881 -0.731845
vn -0.412755 0.909954 -0.040218
vn -0.475357 0.679091 -0.559349
vn -0.717037 0.667858 0.199559
vn -0.281108 -0.909939 -0.304942
vn -0.721849 -0.671315 -0.168137
vn -0.696947 -0.673910 -0.245174
vn -0.281108 -0.909939 -0.304942
vn -0.696947 -0.673910 -0.245174
vn -0.046527 -0.679881 -0.731845
vn -0.404366 0.895810 -0.184423
vn -0.408677 0.679718 -0.609071
vn -0.475357 0.679091 -0.559349
vn -0.412755 0.909954 -0.040218
vn -0.717037 0.667858 0.199559
vn -0.690676 0.668912 0.274815
vn -0.455807 -0.848696 0.268246
vn -0.467040 -0.671923 0.574798
vn -0.721849 -0.671315 -0.168137
vn -0.185855 0.878819 0.439471
vn -0.690676 0.668912 0.274815
vn -0.042108 0.678863 0.733057
vn -0.455807 -0.848696 0.268246
vn -0.400999 -0.673163 0.621331
vn -0.467040 -0.671923 0.574798
vn -0.185855 0.878819 0.439471
vn -0.042108 0.678863 0.733057
vn 0.041290 0.679997 0.732051
vn -0.179700 -0.891067 0.416782
vn 0.412987 -0.679923 0.605925
vn -0.400999 -0.673163 0.621331
vn 0.070508 0.887627 0.455134
vn 0.041290 0.679997 0.732051
vn 0.695896 0.673364 0.249619
vn 0.353541 -0.897205 0.264637
vn 0.479369 -0.678698 0.556394
vn 0.412987 -0.679923 0.605926
vn 0.470268 0.880952 -0.052655
vn 0.695896 0.673364 0.249619
vn 0.720433 0.671667 0.172739
vn 0.353541 -0.897205 0.264637
vn 0.715487 -0.668045 -0.204435
vn 0.479369 -0.678698 0.556394
vn 0.470268 0.880952 -0.052655
vn 0.720433 0.671667 0.172739
vn 0.471323 0.671686 -0.571570
vn 0.450003 -0.891769 -0.047390
vn 0.688639 -0.669176 -0.279247
vn 0.715487 -0.668045 -0.204435
vn 0.355387 0.882940 -0.306785
vn 0.471323 0.671686 -0.571570
vn 0.404992 0.673308 -0.618578
vn 0.367013 -0.881733 -0.296393
vn 0.038213 -0.679530 -0.732652
vn 0.688639 -0.669176 -0.279247
vn 0.109762 0.895326 -0.431676
vn 0.404992 0.673308 -0.618578
vn -0.408677 0.679718 -0.609070
vn -0.144846 -0.885658 -0.441169
vn -0.046527 -0.679881 -0.731845
vn 0.038213 -0.679530 -0.732652
s off
g sm_K10_DiceSet_01
usemtl lambert2SG
f 7/1/1 11/2/2 2/3/3
f 10/4/4 2/3/5 11/2/6
f 6/5/7 11/2/8 3/6/9
f 5/7/10 11/2/11 8/8/12
f 4/9/13 11/2/14 6/5/15
f 8/8/16 11/2/17 4/9/18
f 9/10/19 11/2/20 5/7/21
f 3/6/22 11/2/23 7/1/24
f 1/11/25 11/2/26 9/10/27
f 10/4/28 11/2/29 1/11/30
f 18/12/31 13/13/32 22/14/33
f 21/15/34 22/14/35 13/13/36
f 17/16/37 14/17/38 22/14/39
f 16/18/40 19/19/41 22/14/42
f 15/20/43 17/16/44 22/14/45
f 19/19/46 15/20/47 22/14/48
f 20/21/49 16/18/50 22/14/51
f 14/17/52 18/12/53 22/14/54
f 12/22/55 20/21/56 22/14/57
f 21/15/58 12/22/59 22/14/60
f 2/3/61 10/4/62 23/23/63
f 23/23/64 10/4/65 30/24/66
f 18/25/67 26/26/68 13/27/69
f 26/26/70 27/28/71 13/27/72
f 13/29/73 28/30/74 21/31/75
f 28/30/76 61/32/77 21/31/78
f 1/11/79 60/33/80 10/4/81
f 29/34/82 10/4/83 60/33/84
f 7/35/85 2/36/86 31/37/87
f 31/37/88 2/36/89 24/38/90
f 14/39/91 34/40/92 18/25/93
f 34/40/94 25/41/95 18/25/96
f 3/42/97 7/35/98 35/43/99
f 35/43/100 7/35/101 32/44/102
f 17/45/103 38/46/104 14/47/105
f 38/46/106 33/48/107 14/47/108
f 6/49/109 3/50/110 39/51/111
f 39/51/112 3/50/113 36/52/114
f 17/45/115 15/53/116 37/54/117
f 15/53/118 42/55/119 37/54/120
f 6/49/121 40/56/122 4/57/123
f 43/58/124 4/57/125 40/56/126
f 15/20/127 19/19/128 41/59/129
f 19/19/130 46/60/131 41/59/132
f 4/61/133 44/62/134 8/63/135
f 47/64/136 8/63/137 44/62/138
f 19/19/139 16/18/140 45/65/141
f 16/18/142 50/66/143 45/65/144
f 8/63/145 48/67/146 5/68/147
f 51/69/148 5/68/149 48/67/150
f 16/70/151 20/71/152 49/72/153
f 20/71/154 54/73/155 49/72/156
f 5/74/157 52/75/158 9/76/159
f 55/77/160 9/76/161 52/75/162
f 20/71/163 12/78/164 53/79/165
f 12/78/166 58/80/167 53/79/168
f 1/81/169 9/76/170 59/82/171
f 59/82/172 9/76/173 56/83/174
f 12/84/175 21/31/176 57/85/177
f 21/31/178 62/86/179 57/85/180
f 24/87/181 23/23/182 25/88/183
f 25/88/184 23/23/185 26/89/186
f 28/90/187 27/91/188 29/34/189
f 29/34/190 27/91/191 30/24/192
f 31/37/193 34/92/194 32/44/195
f 32/44/196 34/92/197 33/93/198
f 36/94/199 35/43/200 37/95/201
f 37/95/202 35/43/203 38/96/204
f 40/56/205 39/51/206 41/97/207
f 41/97/208 39/51/209 42/98/210
f 44/99/211 43/58/212 45/100/213
f 45/100/214 43/58/215 46/101/216
f 48/67/217 47/64/218 49/102/219
f 49/102/220 47/64/221 50/103/222
f 51/69/223 54/104/224 52/105/225
f 52/105/226 54/104/227 53/106/228
f 55/77/229 58/107/230 56/83/231
f 56/83/232 58/107/233 57/108/234
f 60/109/235 59/82/236 61/110/237
f 61/110/238 59/82/239 62/111/240
f 23/23/241 30/24/242 26/89/243
f 26/89/244 30/24/245 27/91/246
f 34/92/247 31/37/248 25/112/249
f 25/112/250 31/37/251 24/38/252
f 35/43/253 32/44/254 38/96/255
f 38/96/256 32/44/257 33/93/258
f 42/98/259 39/51/260 37/113/261
f 37/113/262 39/51/263 36/52/264
f 43/58/265 40/56/266 46/101/267
f 46/101/268 40/56/269 41/97/270
f 50/103/271 47/64/272 45/114/273
f 45/114/274 47/64/275 44/62/276
f 51/69/277 48/67/278 54/104/279
f 54/104/280 48/67/281 49/102/282
f 58/107/283 55/77/284 53/115/285
f 53/115/286 55/77/287 52/75/288
f 59/82/289 56/83/290 62/111/291
f 62/111/292 56/83/293 57/108/294
f 60/33/295 61/116/296 29/34/297
f 29/34/298 61/116/299 28/90/300
f 2/3/301 23/23/302 24/87/303
f 18/25/304 25/41/305 26/26/306
f 13/27/307 27/28/308 28/117/309
f 10/4/310 29/34/311 30/24/312
f 7/35/313 31/37/314 32/44/315
f 14/47/316 33/48/317 34/118/318
f 3/42/319 35/43/320 36/94/321
f 17/45/322 37/54/323 38/46/324
f 6/49/325 39/51/326 40/56/327
f 15/20/328 41/59/329 42/119/330
f 4/57/331 43/58/332 44/99/333
f 19/19/334 45/65/335 46/60/336
f 8/63/337 47/64/338 48/67/339
f 16/70/340 49/72/341 50/120/342
f 5/68/343 51/69/344 52/105/345
f 20/71/346 53/79/347 54/73/348
f 9/76/349 55/77/350 56/83/351
f 12/84/352 57/85/353 58/121/354
f 1/81/355 59/82/356 60/109/357
f 21/31/358 61/32/359 62/86/360
