# This file uses centimeters as units for non-parametric coordinates.

mtllib sm_K12_DiceSet_01.mtl
g default
v -0.049156 1.002385 -0.968636
v -0.068545 1.034672 -0.961362
v -0.031045 1.034392 -0.963583
v -0.632943 0.635208 -0.737242
v -0.621156 0.667614 -0.752218
v -0.602575 0.635631 -0.760644
v -0.952539 1.032976 -0.220998
v -0.942962 1.032997 -0.258942
v -0.955197 1.000988 -0.241591
v -0.574096 1.648426 -0.139508
v -0.592927 1.627851 -0.164014
v -0.603847 1.628739 -0.127568
v -0.014324 1.629237 -0.603702
v -0.052693 1.628766 -0.601429
v -0.032902 1.649846 -0.576837
v 0.923619 1.007682 -0.336771
v 0.911208 1.040619 -0.352973
v 0.923815 1.041114 -0.316432
v 0.583044 1.633269 -0.187868
v 0.568377 1.633426 -0.223709
v 0.551606 1.654680 -0.196676
v 0.522909 0.639784 -0.816982
v 0.542727 0.671875 -0.811263
v 0.556225 0.639617 -0.797788
v 0.326636 0.027398 -0.476371
v 0.325173 0.047779 -0.509324
v 0.356994 0.047654 -0.488821
v -0.400995 0.045077 -0.450409
v -0.370224 0.045361 -0.474163
v -0.368268 0.025339 -0.440829
v 0.944052 0.645926 0.291884
v 0.952936 0.645209 0.254656
v 0.955197 0.678308 0.276218
v 0.575604 0.027794 0.174710
v 0.603703 0.050690 0.162368
v 0.594370 0.050047 0.200298
v 0.015491 0.049052 0.637715
v 0.032808 0.026138 0.612681
v 0.053744 0.049616 0.635377
v -0.581235 0.047149 0.221189
v -0.549530 0.026020 0.230590
v -0.566834 0.046709 0.257868
v -0.923992 0.670657 0.370917
v -0.923832 0.639201 0.350264
v -0.911250 0.638730 0.386564
v -0.521540 1.040617 0.850226
v -0.554736 1.040824 0.830318
v -0.541009 1.006972 0.844290
v -0.326378 1.653407 0.510808
v -0.356702 1.632701 0.522528
v -0.324025 1.632232 0.543753
v 0.401638 1.634863 0.483225
v 0.369648 1.655884 0.475311
v 0.370903 1.634337 0.508402
v 0.621520 1.011121 0.786531
v 0.634270 1.043845 0.771309
v 0.602909 1.044112 0.793839
v 0.030526 0.644775 0.996487
v 0.069537 0.645037 0.994372
v 0.050361 0.678324 1.001827
vt 0.699616 0.537787
vt 0.699295 0.539834
vt 0.644075 0.537787
vt 0.642857 0.539831
vt 0.846434 0.945700
vt 0.799716 0.978933
vt 0.844912 0.944156
vt 0.797449 0.977934
vt 0.847038 0.943841
vt 0.829012 0.888791
vt 0.826606 0.888223
vt 0.880314 0.945852
vt 0.880550 0.943408
vt 0.926477 0.979840
vt 0.927470 0.977954
vt 0.795978 0.979469
vt 0.750532 0.943412
vt 0.749526 0.945288
vt 0.877049 0.822822
vt 0.922407 0.856096
vt 0.876818 0.825189
vt 0.921451 0.857931
vt 0.748944 0.941569
vt 0.769027 0.888217
vt 0.767156 0.887259
vt 0.750182 0.825219
vt 0.750411 0.822852
vt 0.794859 0.857947
vt 0.795814 0.856111
vt 0.768732 0.886115
vt 0.825383 0.886115
vt 0.716602 0.593595
vt 0.716810 0.595960
vt 0.670815 0.626608
vt 0.671748 0.628448
vt 0.639009 0.888219
vt 0.638714 0.886115
vt 0.696621 0.888230
vt 0.695391 0.886115
vt 0.625450 0.593344
vt 0.623595 0.592443
vt 0.640831 0.539460
vt 0.625221 0.595708
vt 0.669859 0.628443
vt 0.846651 0.707645
vt 0.845051 0.709496
vt 0.828631 0.652614
vt 0.826757 0.653585
vt 0.958716 0.887865
vt 0.976851 0.943265
vt 0.956619 0.888228
vt 0.974936 0.944182
vt 0.667474 0.978009
vt 0.714961 0.944221
vt 0.668437 0.979911
vt 0.715179 0.946670
vt 0.975153 0.946629
vt 0.928432 0.979856
vt 0.767083 0.540347
vt 0.769394 0.539831
vt 0.749969 0.593014
vt 0.751998 0.593350
vt 0.717199 0.709209
vt 0.715072 0.709522
vt 0.699175 0.654133
vt 0.696777 0.653567
vt 0.698719 0.887866
vt 0.716877 0.943303
vt 0.844107 0.595405
vt 0.798785 0.628090
vt 0.843137 0.593588
vt 0.797361 0.626600
vt 0.894128 0.538895
vt 0.895974 0.539825
vt 0.877023 0.591546
vt 0.878589 0.593331
vt 0.795184 0.627532
vt 0.750548 0.594811
vt 0.968409 0.825454
vt 0.923339 0.857936
vt 0.968203 0.823086
vt 0.826288 0.768906
vt 0.843454 0.822165
vt 0.824260 0.769268
vt 0.841598 0.823059
vt 0.641176 0.769271
vt 0.642397 0.767225
vt 0.697662 0.769274
vt 0.697983 0.767225
vt 0.841806 0.825427
vt 0.796748 0.857951
vt 0.769182 0.653574
vt 0.770419 0.651455
vt 0.827059 0.651455
vt 0.639621 0.651456
vt 0.696503 0.651456
vt 0.639326 0.653567
vt 0.922943 0.628399
vt 0.878358 0.595695
vt 0.923899 0.626566
vt 0.899069 0.888217
vt 0.620507 0.943457
vt 0.825830 0.539834
vt 0.950903 0.769268
vt 0.894468 0.769264
vt 0.767803 0.769265
vt 0.750677 0.708744
vt 0.797582 0.743264
vt 0.667608 0.743281
vt 0.620730 0.708728
vt 0.969652 0.593600
vt 0.952380 0.539828
vt 0.623714 0.822837
vt 0.714997 0.823084
vt 0.669145 0.856155
vt 0.880658 0.708713
vt 0.899197 0.653556
vt 0.927550 0.743256
vt 0.956702 0.653567
vt 0.975005 0.709497
vn 0.259555 0.005592 -0.965712
vn 0.259555 0.005592 -0.965712
vn 0.259555 0.005592 -0.965712
vn 0.280316 0.038142 -0.959150
vn 0.280316 0.038142 -0.959150
vn 0.280316 0.038142 -0.959150
vn 0.280316 0.038142 -0.959150
vn -0.335895 -0.044424 -0.940851
vn -0.335895 -0.044424 -0.940851
vn -0.335895 -0.044424 -0.940851
vn -0.335895 -0.044424 -0.940851
vn -0.335895 -0.044424 -0.940851
vn 0.280316 0.038142 -0.959150
vn -0.335895 -0.044424 -0.940851
vn -0.064199 0.526225 -0.847919
vn -0.064199 0.526225 -0.847919
vn -0.335895 -0.044424 -0.940851
vn -0.064199 0.526225 -0.847919
vn -0.464367 -0.541492 -0.700821
vn -0.335895 -0.044424 -0.940851
vn -0.464367 -0.541492 -0.700821
vn -0.464367 -0.541492 -0.700821
vn -0.335895 -0.044424 -0.940851
vn -0.464367 -0.541492 -0.700821
vn -0.335895 -0.044424 -0.940851
vn -0.464367 -0.541492 -0.700821
vn -0.850888 -0.046033 -0.523326
vn -0.850888 -0.046033 -0.523326
vn -0.464367 -0.541492 -0.700821
vn -0.850888 -0.046033 -0.523326
vn -0.850888 -0.046033 -0.523326
vn -0.998458 -0.052345 0.018478
vn -0.998458 -0.052345 0.018478
vn -0.998458 -0.052345 0.018478
vn -0.998458 -0.052345 0.018478
vn -0.998458 -0.052345 0.018478
vn -0.850888 -0.046033 -0.523326
vn -0.998458 -0.052345 0.018478
vn -0.788321 0.517672 -0.332514
vn -0.788321 0.517672 -0.332514
vn -0.998458 -0.052345 0.018478
vn -0.788321 0.517672 -0.332514
vn -0.507591 0.840762 0.188335
vn -0.788321 0.517672 -0.332514
vn -0.507591 0.840762 0.188335
vn -0.507591 0.840762 0.188335
vn -0.788321 0.517672 -0.332514
vn -0.507591 0.840762 0.188335
vn -0.507591 0.840762 0.188335
vn -0.392941 0.769403 -0.503604
vn -0.788321 0.517672 -0.332514
vn -0.788321 0.517672 -0.332514
vn -0.392941 0.769403 -0.503604
vn -0.064199 0.526225 -0.847919
vn -0.064199 0.526225 -0.847919
vn -0.392941 0.769403 -0.503604
vn 0.336000 0.790033 -0.512788
vn 0.336000 0.790033 -0.512788
vn -0.392941 0.769403 -0.503604
vn 0.336000 0.790033 -0.512788
vn 0.996146 0.087691 0.001991
vn 0.996146 0.087691 0.001991
vn 0.996146 0.087691 0.001991
vn 0.996146 0.087691 0.001991
vn 0.996146 0.087691 0.001991
vn 0.996146 0.087691 0.001991
vn 0.769396 0.019355 -0.638479
vn 0.996146 0.087691 0.001991
vn 0.280316 0.038142 -0.959150
vn 0.280316 0.038142 -0.959150
vn 0.996146 0.087691 0.001991
vn 0.769396 0.019355 -0.638479
vn 0.996146 0.087691 0.001991
vn 0.769396 0.019355 -0.638479
vn 0.756490 0.512501 -0.406282
vn 0.756490 0.512501 -0.406282
vn 0.769396 0.019355 -0.638479
vn 0.336000 0.790033 -0.512788
vn 0.756490 0.512501 -0.406282
vn 0.336000 0.790033 -0.512788
vn 0.445812 0.887669 0.115304
vn 0.445812 0.887669 0.115304
vn 0.336000 0.790033 -0.512788
vn 0.445812 0.887669 0.115304
vn 0.769396 0.019355 -0.638479
vn 0.546956 -0.525667 -0.651547
vn 0.280316 0.038142 -0.959150
vn 0.280316 0.038142 -0.959150
vn 0.546956 -0.525667 -0.651547
vn 0.546956 -0.525667 -0.651547
vn 0.546956 -0.525667 -0.651547
vn 0.571067 -0.794163 -0.207816
vn 0.571067 -0.794163 -0.207816
vn 0.571067 -0.794163 -0.207816
vn 0.571067 -0.794163 -0.207816
vn 0.571067 -0.794163 -0.207816
vn 0.546956 -0.525667 -0.651547
vn 0.571067 -0.794163 -0.207816
vn -0.464367 -0.541492 -0.700821
vn -0.464367 -0.541492 -0.700821
vn 0.571067 -0.794163 -0.207816
vn -0.011430 -0.867102 -0.498000
vn -0.464367 -0.541492 -0.700821
vn -0.011430 -0.867102 -0.498000
vn -0.585973 -0.794632 -0.158729
vn -0.585973 -0.794632 -0.158729
vn -0.011430 -0.867102 -0.498000
vn -0.585973 -0.794632 -0.158729
vn 0.852376 0.045480 0.520948
vn 0.996146 0.087691 0.001991
vn 0.852376 0.045480 0.520948
vn 0.852376 0.045480 0.520948
vn 0.996146 0.087691 0.001991
vn 0.852376 0.045480 0.520948
vn 0.852376 0.045480 0.520948
vn 0.836860 -0.525766 0.152435
vn 0.996146 0.087691 0.001991
vn 0.996146 0.087691 0.001991
vn 0.836860 -0.525766 0.152435
vn 0.571067 -0.794163 -0.207816
vn 0.836860 -0.525766 0.152435
vn 0.291389 -0.871914 0.393521
vn 0.571067 -0.794163 -0.207816
vn 0.571067 -0.794163 -0.207816
vn 0.291389 -0.871914 0.393521
vn 0.291389 -0.871914 0.393521
vn 0.098234 -0.520358 0.848279
vn 0.291389 -0.871914 0.393521
vn 0.098234 -0.520358 0.848279
vn 0.098234 -0.520358 0.848279
vn 0.291389 -0.871914 0.393521
vn 0.098234 -0.520358 0.848279
vn 0.291389 -0.871914 0.393521
vn 0.098234 -0.520358 0.848279
vn -0.585973 -0.794632 -0.158729
vn -0.585973 -0.794632 -0.158729
vn 0.098234 -0.520358 0.848279
vn -0.326321 -0.794242 0.512537
vn -0.326321 -0.794242 0.512537
vn -0.802837 -0.509507 0.309605
vn -0.585973 -0.794632 -0.158729
vn -0.585973 -0.794632 -0.158729
vn -0.802837 -0.509507 0.309605
vn -0.998458 -0.052345 0.018478
vn -0.802837 -0.509507 0.309605
vn -0.794155 0.034570 0.606731
vn -0.998458 -0.052345 0.018478
vn -0.998458 -0.052345 0.018478
vn -0.794155 0.034570 0.606731
vn -0.794155 0.034570 0.606731
vn -0.294537 -0.061583 0.953654
vn -0.794155 0.034570 0.606731
vn -0.294537 -0.061583 0.953654
vn -0.294537 -0.061583 0.953654
vn -0.794155 0.034570 0.606731
vn 0.098234 -0.520358 0.848279
vn -0.794155 0.034570 0.606731
vn -0.294537 -0.061583 0.953654
vn -0.507591 0.840762 0.188335
vn -0.507591 0.840762 0.188335
vn -0.294537 -0.061583 0.953654
vn -0.404555 0.531956 0.743880
vn -0.507591 0.840762 0.188335
vn -0.404555 0.531956 0.743880
vn 0.445812 0.887669 0.115304
vn 0.445812 0.887669 0.115304
vn -0.404555 0.531956 0.743880
vn 0.022002 0.802970 0.595614
vn 0.022002 0.802970 0.595614
vn 0.454373 0.539730 0.708687
vn 0.445812 0.887669 0.115304
vn 0.445812 0.887669 0.115304
vn 0.454373 0.539730 0.708687
vn 0.852376 0.045480 0.520948
vn 0.454373 0.539730 0.708687
vn -0.294537 -0.061583 0.953654
vn 0.852376 0.045480 0.520948
vn 0.852376 0.045480 0.520948
vn -0.294537 -0.061583 0.953654
vn 0.098234 -0.520358 0.848279
vn -0.335895 -0.044424 -0.940851
vn -0.335895 -0.044424 -0.940851
vn -0.064199 0.526225 -0.847919
vn -0.064199 0.526225 -0.847919
vn -0.335895 -0.044424 -0.940851
vn -0.788321 0.517672 -0.332514
vn -0.335895 -0.044424 -0.940851
vn -0.850888 -0.046033 -0.523326
vn -0.788321 0.517672 -0.332514
vn 0.280316 0.038142 -0.959150
vn 0.280316 0.038142 -0.959150
vn 0.769396 0.019355 -0.638479
vn 0.769396 0.019355 -0.638479
vn 0.280316 0.038142 -0.959150
vn 0.336000 0.790033 -0.512788
vn 0.336000 0.790033 -0.512788
vn 0.280316 0.038142 -0.959150
vn -0.064199 0.526225 -0.847919
vn 0.280316 0.038142 -0.959150
vn 0.280316 0.038142 -0.959150
vn -0.335895 -0.044424 -0.940851
vn -0.335895 -0.044424 -0.940851
vn 0.280316 0.038142 -0.959150
vn -0.464367 -0.541492 -0.700821
vn 0.280316 0.038142 -0.959150
vn 0.546956 -0.525667 -0.651547
vn -0.464367 -0.541492 -0.700821
vn 0.996146 0.087691 0.001991
vn 0.996146 0.087691 0.001991
vn 0.769396 0.019355 -0.638479
vn 0.996146 0.087691 0.001991
vn 0.571067 -0.794163 -0.207816
vn 0.769396 0.019355 -0.638479
vn 0.571067 -0.794163 -0.207816
vn 0.546956 -0.525667 -0.651547
vn 0.769396 0.019355 -0.638479
vn 0.571067 -0.794163 -0.207816
vn 0.571067 -0.794163 -0.207816
vn -0.011430 -0.867102 -0.498000
vn 0.571067 -0.794163 -0.207816
vn 0.291389 -0.871914 0.393521
vn -0.011430 -0.867102 -0.498000
vn 0.291389 -0.871914 0.393521
vn -0.585973 -0.794632 -0.158729
vn -0.011430 -0.867102 -0.498000
vn -0.464367 -0.541492 -0.700821
vn -0.585973 -0.794632 -0.158729
vn -0.464367 -0.541492 -0.700821
vn -0.464367 -0.541492 -0.700821
vn -0.585973 -0.794632 -0.158729
vn -0.850888 -0.046033 -0.523326
vn -0.585973 -0.794632 -0.158729
vn -0.998458 -0.052345 0.018478
vn -0.850888 -0.046033 -0.523326
vn -0.998458 -0.052345 0.018478
vn -0.794155 0.034570 0.606731
vn -0.998458 -0.052345 0.018478
vn -0.794155 0.034570 0.606731
vn -0.507591 0.840762 0.188335
vn -0.998458 -0.052345 0.018478
vn -0.998458 -0.052345 0.018478
vn -0.507591 0.840762 0.188335
vn -0.788321 0.517672 -0.332514
vn -0.507591 0.840762 0.188335
vn -0.507591 0.840762 0.188335
vn -0.392941 0.769403 -0.503604
vn -0.507591 0.840762 0.188335
vn 0.445812 0.887669 0.115304
vn -0.392941 0.769403 -0.503604
vn -0.392941 0.769403 -0.503604
vn 0.445812 0.887669 0.115304
vn 0.336000 0.790033 -0.512788
vn 0.996146 0.087691 0.001991
vn 0.996146 0.087691 0.001991
vn 0.852376 0.045480 0.520948
vn 0.852376 0.045480 0.520948
vn 0.996146 0.087691 0.001991
vn 0.445812 0.887669 0.115304
vn 0.756490 0.512501 -0.406282
vn 0.445812 0.887669 0.115304
vn 0.996146 0.087691 0.001991
vn 0.852376 0.045480 0.520948
vn 0.852376 0.045480 0.520948
vn 0.836860 -0.525766 0.152435
vn 0.852376 0.045480 0.520948
vn 0.098234 -0.520358 0.848279
vn 0.836860 -0.525766 0.152435
vn 0.291389 -0.871914 0.393521
vn 0.836860 -0.525766 0.152435
vn 0.098234 -0.520358 0.848279
vn -0.294537 -0.061583 0.953654
vn -0.294537 -0.061583 0.953654
vn -0.404555 0.531956 0.743880
vn -0.294537 -0.061583 0.953654
vn 0.454373 0.539730 0.708687
vn -0.404555 0.531956 0.743880
vn 0.454373 0.539730 0.708687
vn 0.022002 0.802970 0.595614
vn -0.404555 0.531956 0.743880
vn 0.098234 -0.520358 0.848279
vn 0.098234 -0.520358 0.848279
vn -0.326321 -0.794242 0.512537
vn 0.098234 -0.520358 0.848279
vn -0.794155 0.034570 0.606731
vn -0.326321 -0.794242 0.512537
vn -0.794155 0.034570 0.606731
vn -0.802837 -0.509507 0.309605
vn -0.326321 -0.794242 0.512537
vn 0.280316 0.038142 -0.959150
vn -0.335895 -0.044424 -0.940851
vn 0.280316 0.038142 -0.959150
vn -0.464367 -0.541492 -0.700821
vn -0.335895 -0.044424 -0.940851
vn -0.335895 -0.044424 -0.940851
vn -0.998458 -0.052345 0.018478
vn -0.850888 -0.046033 -0.523326
vn -0.850888 -0.046033 -0.523326
vn -0.507591 0.840762 0.188335
vn -0.788321 0.517672 -0.332514
vn -0.788321 0.517672 -0.332514
vn -0.064199 0.526225 -0.847919
vn -0.064199 0.526225 -0.847919
vn -0.392941 0.769403 -0.503604
vn 0.996146 0.087691 0.001991
vn 0.769396 0.019355 -0.638479
vn 0.996146 0.087691 0.001991
vn 0.756490 0.512501 -0.406282
vn 0.336000 0.790033 -0.512788
vn 0.336000 0.790033 -0.512788
vn 0.280316 0.038142 -0.959150
vn 0.280316 0.038142 -0.959150
vn 0.769396 0.019355 -0.638479
vn 0.571067 -0.794163 -0.207816
vn 0.546956 -0.525667 -0.651547
vn 0.546956 -0.525667 -0.651547
vn -0.464367 -0.541492 -0.700821
vn -0.464367 -0.541492 -0.700821
vn -0.011430 -0.867102 -0.498000
vn 0.852376 0.045480 0.520948
vn 0.996146 0.087691 0.001991
vn 0.996146 0.087691 0.001991
vn 0.571067 -0.794163 -0.207816
vn 0.571067 -0.794163 -0.207816
vn 0.836860 -0.525766 0.152435
vn 0.098234 -0.520358 0.848279
vn 0.291389 -0.871914 0.393521
vn 0.291389 -0.871914 0.393521
vn -0.585973 -0.794632 -0.158729
vn -0.585973 -0.794632 -0.158729
vn -0.326321 -0.794242 0.512537
vn -0.998458 -0.052345 0.018478
vn -0.998458 -0.052345 0.018478
vn -0.802837 -0.509507 0.309605
vn -0.294537 -0.061583 0.953654
vn -0.794155 0.034570 0.606731
vn -0.794155 0.034570 0.606731
vn -0.507591 0.840762 0.188335
vn -0.507591 0.840762 0.188335
vn -0.404555 0.531956 0.743880
vn 0.445812 0.887669 0.115304
vn 0.445812 0.887669 0.115304
vn 0.022002 0.802970 0.595614
vn 0.852376 0.045480 0.520948
vn 0.852376 0.045480 0.520948
vn 0.454373 0.539730 0.708687
vn 0.098234 -0.520358 0.848279
vn 0.098234 -0.520358 0.848279
vn -0.294537 -0.061583 0.953654
s off
g sm_K12_DiceSet_01
usemtl lambert2SG
f 1/1/1 3/2/2 22/3/3
f 22/3/4 3/2/5 23/4/6
f 1/5/7 6/6/8 2/7/9
f 2/7/10 6/6/11 5/8/12
f 3/9/13 2/7/14 13/10/15
f 13/10/16 2/7/17 14/11/18
f 4/12/19 6/13/20 28/14/21
f 28/14/22 6/13/23 29/15/24
f 5/8/25 4/16/26 8/17/27
f 8/17/28 4/16/29 9/18/30
f 9/19/31 44/20/32 7/21/33
f 7/21/34 44/20/35 43/22/36
f 8/17/37 7/23/38 11/24/39
f 11/24/40 7/23/41 12/25/42
f 10/26/43 12/27/44 49/28/45
f 49/28/46 12/27/47 50/29/48
f 10/30/49 15/31/50 11/24/51
f 11/24/52 15/31/53 14/11/54
f 13/32/55 15/33/56 20/34/57
f 20/34/58 15/33/59 21/35/60
f 16/36/61 18/37/62 32/38/63
f 32/38/64 18/37/65 33/39/66
f 17/40/67 16/41/68 23/4/69
f 23/4/70 16/41/71 24/42/72
f 18/43/73 17/40/74 19/44/75
f 19/44/76 17/40/77 20/34/78
f 19/45/79 21/46/80 52/47/81
f 52/47/82 21/46/83 53/48/84
f 24/49/85 27/50/86 22/51/87
f 22/51/88 27/50/89 26/52/90
f 27/53/91 35/54/92 25/55/93
f 25/55/94 35/54/95 34/56/96
f 26/52/97 25/57/98 29/15/99
f 29/15/100 25/57/101 30/58/102
f 28/59/103 30/60/104 40/61/105
f 40/61/106 30/60/107 41/62/108
f 31/63/109 33/64/110 55/65/111
f 55/65/112 33/64/113 56/66/114
f 31/67/115 36/68/116 32/38/117
f 32/38/118 36/68/119 35/54/120
f 36/69/121 39/70/122 34/71/123
f 34/71/124 39/70/125 38/72/126
f 37/73/127 39/74/128 58/75/129
f 58/75/130 39/74/131 59/76/132
f 38/72/133 37/77/134 41/62/135
f 41/62/136 37/77/137 42/78/138
f 42/79/139 45/80/140 40/81/141
f 40/81/142 45/80/143 44/20/144
f 45/82/145 48/83/146 43/84/147
f 43/84/148 48/83/149 47/85/150
f 46/86/151 48/87/152 60/88/153
f 60/88/154 48/87/155 58/89/156
f 47/85/157 46/90/158 50/29/159
f 50/29/160 46/90/161 51/91/162
f 49/92/163 51/93/164 53/48/165
f 53/48/166 51/93/167 54/94/168
f 54/95/169 57/96/170 52/97/171
f 52/97/172 57/96/173 56/66/174
f 57/98/175 60/99/176 55/100/177
f 55/100/178 60/99/179 59/76/180
f 2/7/181 5/8/182 14/11/183
f 14/11/184 5/8/185 11/24/186
f 5/8/187 8/17/188 11/24/189
f 23/4/190 3/2/191 17/40/192
f 17/40/193 3/2/194 20/34/195
f 20/34/196 3/2/197 13/32/198
f 1/101/199 22/51/200 6/13/201
f 6/13/202 22/51/203 29/15/204
f 22/51/205 26/52/206 29/15/207
f 16/36/208 32/38/209 24/102/210
f 32/38/211 35/54/212 24/102/213
f 35/54/214 27/53/215 24/102/216
f 25/103/217 34/71/218 30/60/219
f 34/71/220 38/72/221 30/60/222
f 38/72/223 41/62/224 30/60/225
f 28/104/226 40/81/227 4/105/228
f 4/105/229 40/81/230 9/19/231
f 40/81/232 44/20/233 9/19/234
f 43/84/235 47/85/236 7/106/237
f 47/85/238 50/29/239 7/106/240
f 7/106/241 50/29/242 12/27/243
f 10/107/244 49/92/245 15/108/246
f 49/92/247 53/48/248 15/108/249
f 15/108/250 53/48/251 21/46/252
f 33/64/253 18/109/254 56/66/255
f 56/66/256 18/109/257 52/97/258
f 19/110/259 52/97/260 18/109/261
f 31/111/262 55/100/263 36/112/264
f 55/100/265 59/76/266 36/112/267
f 39/74/268 36/112/269 59/76/270
f 46/86/271 60/88/272 51/113/273
f 60/88/274 57/114/275 51/113/276
f 57/114/277 54/115/278 51/113/279
f 37/116/280 58/117/281 42/118/282
f 58/117/283 48/119/284 42/118/285
f 48/119/286 45/120/287 42/118/288
f 1/5/289 2/7/290 3/9/291
f 4/16/292 5/8/293 6/6/294
f 7/23/295 8/17/296 9/18/297
f 10/30/298 11/24/299 12/25/300
f 13/10/301 14/11/302 15/31/303
f 16/41/304 17/40/305 18/43/306
f 19/44/307 20/34/308 21/35/309
f 22/3/310 23/4/311 24/42/312
f 25/57/313 26/52/314 27/50/315
f 28/14/316 29/15/317 30/58/318
f 31/67/319 32/38/320 33/39/321
f 34/56/322 35/54/323 36/68/324
f 37/77/325 38/72/326 39/70/327
f 40/61/328 41/62/329 42/78/330
f 43/22/331 44/20/332 45/80/333
f 46/90/334 47/85/335 48/83/336
f 49/28/337 50/29/338 51/91/339
f 52/47/340 53/48/341 54/94/342
f 55/65/343 56/66/344 57/96/345
f 58/75/346 59/76/347 60/99/348
