# This file uses centimeters as units for non-parametric coordinates.

mtllib sm_K8_DiceSet_01.mtl
g default
v -0.025782 -1.068656 -0.026413
v 0.000239 -1.052840 -0.054676
v 0.026472 -1.068239 -0.026001
v 0.055235 -1.052806 0.000205
v 0.026849 -1.068483 0.026144
v 0.000305 -1.052891 0.054758
v -0.025915 -1.068686 0.026297
v -0.054419 -1.052833 0.000136
v -0.782572 -0.002080 0.732211
v -0.775535 -0.040569 0.721839
v -0.759491 -0.040577 0.757429
v -0.721719 -0.041959 0.772970
v -0.733473 -0.002187 0.780523
v -0.724010 0.035715 0.772821
v -0.759392 0.034584 0.757195
v -0.775054 0.035726 0.721811
v 0.783584 -0.000564 0.732972
v 0.776314 0.036896 0.722759
v 0.760575 0.035591 0.757461
v 0.723165 0.037724 0.773893
v 0.734599 -0.000506 0.780629
v 0.725385 -0.039204 0.774007
v 0.761152 -0.037421 0.757526
v 0.777043 -0.039058 0.722797
v 0.025797 1.067971 0.025404
v 0.053827 1.053516 0.000333
v 0.026267 1.067532 -0.025907
v 0.000177 1.053692 -0.053266
v -0.024765 1.068167 -0.025306
v -0.053658 1.054421 0.000253
v -0.025678 1.069853 0.026108
v 0.000166 1.054493 0.054005
v -0.781982 -0.002096 -0.732189
v -0.775041 0.035740 -0.722371
v -0.758339 0.034628 -0.757272
v -0.721506 0.036354 -0.773437
v -0.732864 -0.001988 -0.780297
v -0.723895 -0.040377 -0.773839
v -0.758867 -0.039190 -0.757987
v -0.775327 -0.040501 -0.722334
v 0.734987 -0.000922 -0.778898
v 0.725343 0.036972 -0.772190
v 0.759751 0.035335 -0.755456
v 0.776815 0.037973 -0.718711
v 0.783009 -0.000797 -0.729681
v 0.777379 -0.039466 -0.721225
v 0.761320 -0.038353 -0.756872
v 0.725592 -0.039382 -0.773097
v 0.000060 -1.086378 0.000332
v -0.770881 -0.003625 0.768631
v 0.770654 -0.001829 0.768554
v 0.000940 1.083572 -0.000771
v -0.768415 -0.002387 -0.765945
v 0.768775 -0.002486 -0.764497
vt 0.069217 0.783092
vt 0.021833 0.697704
vt 0.070664 0.778996
vt 0.025777 0.698295
vt 0.466340 0.783092
vt 0.464893 0.778991
vt 0.513726 0.697700
vt 0.509778 0.698292
vt 0.330560 0.783092
vt 0.283175 0.697702
vt 0.332007 0.778991
vt 0.287123 0.698293
vt 0.072111 0.783092
vt 0.119496 0.697700
vt 0.115553 0.698292
vt 0.194718 0.783092
vt 0.147333 0.697703
vt 0.196164 0.778996
vt 0.151277 0.698295
vt 0.333453 0.783093
vt 0.380839 0.697700
vt 0.376891 0.698292
vt 0.463447 0.783092
vt 0.416088 0.697747
vt 0.420010 0.698293
vt 0.197611 0.783092
vt 0.244972 0.697745
vt 0.240898 0.698384
vt 0.417508 0.695130
vt 0.512281 0.695129
vt 0.244075 0.807059
vt 0.241573 0.810223
vt 0.149298 0.807056
vt 0.151801 0.810219
vt 0.420534 0.810220
vt 0.418083 0.807057
vt 0.510159 0.810313
vt 0.512766 0.807059
vt 0.243504 0.695129
vt 0.148826 0.695132
vt 0.245521 0.809631
vt 0.196687 0.890922
vt 0.198134 0.895024
vt 0.465425 0.890927
vt 0.416591 0.809628
vt 0.463978 0.895023
vt 0.026297 0.810219
vt 0.023795 0.807056
vt 0.115915 0.810313
vt 0.118521 0.807059
vt 0.379393 0.695129
vt 0.284670 0.695130
vt 0.514233 0.809675
vt 0.466872 0.895023
vt 0.071183 0.890922
vt 0.022374 0.809672
vt 0.069736 0.895024
vt 0.331087 0.895023
vt 0.283724 0.809673
vt 0.332534 0.890927
vt 0.287643 0.810221
vt 0.072630 0.895024
vt 0.119992 0.809675
vt 0.195240 0.895024
vt 0.147878 0.809673
vt 0.333981 0.895023
vt 0.381342 0.809676
vt 0.377268 0.810313
vt 0.023325 0.695132
vt 0.118054 0.695129
vt 0.379875 0.807059
vt 0.285141 0.807057
vt 0.464893 0.785699
vt 0.070664 0.785699
vt 0.332007 0.785699
vt 0.196164 0.785699
vt 0.246948 0.807060
vt 0.414636 0.695130
vt 0.246423 0.695129
vt 0.415164 0.807057
vt 0.382266 0.695129
vt 0.020922 0.807056
vt 0.515685 0.807059
vt 0.145906 0.695132
vt 0.465425 0.897630
vt 0.071183 0.897631
vt 0.332534 0.897630
vt 0.196688 0.897631
vt 0.515153 0.695129
vt 0.146426 0.807056
vt 0.382794 0.807059
vt 0.020406 0.695132
vt 0.120923 0.695129
vt 0.282272 0.807057
vt 0.121443 0.807060
vt 0.281748 0.695130
vn -0.326430 -0.664391 -0.672330
vn -0.326430 -0.664391 -0.672330
vn -0.326430 -0.664391 -0.672330
vn -0.355957 -0.678223 -0.642890
vn -0.355957 -0.678223 -0.642890
vn -0.355957 -0.678223 -0.642890
vn -0.355957 -0.678223 -0.642890
vn -0.588069 -0.690182 -0.421691
vn -0.355957 -0.678223 -0.642890
vn -0.355957 -0.678223 -0.642890
vn -0.588069 -0.690182 -0.421691
vn -0.588069 -0.690182 -0.421692
vn 0.589692 -0.680556 -0.434865
vn 0.589692 -0.680556 -0.434865
vn 0.589692 -0.680556 -0.434865
vn 0.589692 -0.680556 -0.434865
vn 0.589692 -0.680556 -0.434865
vn 0.589692 -0.680556 -0.434865
vn 0.589692 -0.680556 -0.434865
vn -0.355957 -0.678223 -0.642890
vn 0.589692 -0.680556 -0.434865
vn 0.589692 -0.680556 -0.434865
vn -0.355957 -0.678223 -0.642890
vn 0.439317 -0.678434 -0.588836
vn 0.422746 -0.685011 0.593335
vn 0.422746 -0.685011 0.593335
vn 0.422746 -0.685011 0.593335
vn 0.422746 -0.685011 0.593335
vn 0.422746 -0.685011 0.593335
vn 0.422746 -0.685011 0.593335
vn 0.422746 -0.685011 0.593335
vn 0.589692 -0.680556 -0.434865
vn 0.422746 -0.685011 0.593335
vn 0.422746 -0.685011 0.593335
vn 0.589692 -0.680556 -0.434865
vn 0.647546 -0.672749 0.357900
vn -0.647846 -0.667368 0.367308
vn -0.647846 -0.667368 0.367308
vn -0.588069 -0.690182 -0.421691
vn -0.588069 -0.690182 -0.421691
vn -0.647846 -0.667368 0.367308
vn -0.647846 -0.667368 0.367308
vn -0.647846 -0.667368 0.367308
vn 0.422746 -0.685011 0.593335
vn -0.647846 -0.667368 0.367308
vn -0.647846 -0.667368 0.367308
vn 0.422746 -0.685011 0.593335
vn -0.373752 -0.668344 0.643137
vn -0.647846 -0.667368 0.367308
vn -0.985395 -0.170280 -0.000753
vn -0.588069 -0.690182 -0.421692
vn -0.588069 -0.690182 -0.421692
vn -0.985395 -0.170280 -0.000753
vn -0.985395 -0.170280 -0.000753
vn -0.985395 -0.170280 -0.000753
vn -0.996717 0.080962 -0.000263
vn -0.985395 -0.170280 -0.000753
vn -0.985395 -0.170280 -0.000753
vn -0.996717 0.080962 -0.000263
vn -0.996717 0.080962 -0.000263
vn 0.000652 0.078567 0.996909
vn 0.000652 0.078567 0.996909
vn 0.000652 0.078567 0.996909
vn 0.000652 0.078567 0.996909
vn 0.000652 0.078567 0.996909
vn 0.000652 0.078566 0.996909
vn 0.000652 0.078567 0.996909
vn -0.373752 -0.668344 0.643137
vn 0.000652 0.078566 0.996909
vn 0.000652 0.078566 0.996909
vn -0.373752 -0.668344 0.643137
vn 0.422746 -0.685011 0.593335
vn -0.996717 0.080962 -0.000263
vn -0.637548 0.669533 0.381127
vn -0.637548 0.669533 0.381127
vn -0.637548 0.669533 0.381127
vn -0.637548 0.669533 0.381127
vn -0.637548 0.669533 0.381127
vn 0.000652 0.078567 0.996909
vn -0.388024 0.670453 0.632401
vn -0.637548 0.669533 0.381127
vn -0.637548 0.669533 0.381127
vn -0.388024 0.670453 0.632401
vn -0.637548 0.669533 0.381127
vn 0.996937 0.078193 0.001571
vn 0.996937 0.078193 0.001571
vn 0.996937 0.078193 0.001571
vn 0.996937 0.078193 0.001571
vn 0.996937 0.078193 0.001571
vn 0.996937 0.078193 0.001571
vn 0.996937 0.078193 0.001571
vn 0.647546 -0.672749 0.357900
vn 0.996937 0.078193 0.001571
vn 0.996937 0.078193 0.001571
vn 0.647546 -0.672749 0.357900
vn 0.589692 -0.680556 -0.434865
vn 0.000652 0.078567 0.996909
vn 0.425588 0.683809 0.592690
vn -0.388024 0.670453 0.632401
vn -0.388024 0.670453 0.632401
vn 0.425588 0.683809 0.592690
vn 0.425588 0.683809 0.592690
vn 0.996937 0.078193 0.001571
vn 0.631359 0.673728 0.384025
vn 0.425588 0.683809 0.592690
vn 0.425588 0.683809 0.592690
vn 0.631359 0.673728 0.384025
vn 0.425588 0.683809 0.592690
vn 0.425176 0.685924 -0.590537
vn 0.425176 0.685924 -0.590537
vn 0.425176 0.685924 -0.590537
vn 0.425176 0.685924 -0.590537
vn 0.425176 0.685924 -0.590537
vn 0.425176 0.685924 -0.590537
vn 0.425176 0.685924 -0.590537
vn 0.631359 0.673728 0.384025
vn 0.425176 0.685924 -0.590537
vn 0.425176 0.685924 -0.590537
vn 0.631359 0.673728 0.384025
vn 0.996937 0.078193 0.001571
vn -0.579330 0.691938 -0.430812
vn -0.579330 0.691938 -0.430812
vn -0.637548 0.669533 0.381127
vn -0.637548 0.669533 0.381127
vn -0.579330 0.691938 -0.430812
vn -0.996717 0.080962 -0.000263
vn -0.579330 0.691938 -0.430812
vn 0.425176 0.685924 -0.590537
vn -0.579330 0.691938 -0.430812
vn -0.579330 0.691938 -0.430812
vn 0.425176 0.685924 -0.590537
vn -0.444805 0.685733 -0.576124
vn -0.355957 -0.678223 -0.642890
vn 0.000925 -0.169803 -0.985478
vn 0.439317 -0.678434 -0.588836
vn 0.439317 -0.678434 -0.588836
vn 0.000925 -0.169803 -0.985478
vn 0.000925 -0.169803 -0.985478
vn 0.000925 -0.169803 -0.985478
vn -0.444805 0.685733 -0.576124
vn 0.000925 -0.169803 -0.985478
vn 0.000925 -0.169803 -0.985478
vn -0.444805 0.685733 -0.576124
vn 0.425176 0.685924 -0.590537
vn -0.996717 0.080962 -0.000263
vn -0.996717 0.080962 -0.000263
vn -0.637548 0.669533 0.381127
vn -0.388024 0.670453 0.632401
vn 0.000652 0.078567 0.996909
vn 0.000652 0.078567 0.996909
vn -0.444805 0.685733 -0.576124
vn 0.425176 0.685924 -0.590537
vn 0.425176 0.685924 -0.590537
vn 0.631359 0.673728 0.384025
vn 0.996937 0.078193 0.001571
vn 0.996937 0.078193 0.001571
vn -0.373752 -0.668344 0.643137
vn 0.422746 -0.685011 0.593335
vn 0.422746 -0.685011 0.593335
vn 0.647546 -0.672749 0.357900
vn 0.589692 -0.680556 -0.434865
vn 0.589692 -0.680556 -0.434865
vn -0.355957 -0.678223 -0.642890
vn -0.355957 -0.678223 -0.642890
vn 0.439317 -0.678434 -0.588836
vn -0.588069 -0.690182 -0.421691
vn -0.647846 -0.667368 0.367308
vn -0.588069 -0.690182 -0.421692
vn -0.588069 -0.690182 -0.421691
vn -0.355957 -0.678223 -0.642890
vn -0.647846 -0.667368 0.367308
vn -0.647846 -0.667368 0.367308
vn -0.355957 -0.678223 -0.642890
vn -0.618274 -0.784739 -0.043830
vn -0.355957 -0.678223 -0.642890
vn 0.589692 -0.680556 -0.434865
vn -0.355957 -0.678223 -0.642890
vn -0.355957 -0.678223 -0.642890
vn 0.589692 -0.680556 -0.434865
vn -0.618274 -0.784739 -0.043830
vn 0.589692 -0.680556 -0.434865
vn 0.422746 -0.685011 0.593335
vn 0.589692 -0.680556 -0.434865
vn 0.589692 -0.680556 -0.434865
vn 0.422746 -0.685011 0.593335
vn -0.618274 -0.784739 -0.043830
vn 0.422746 -0.685011 0.593335
vn -0.647846 -0.667368 0.367308
vn 0.422746 -0.685011 0.593335
vn 0.422746 -0.685011 0.593335
vn -0.647846 -0.667368 0.367308
vn -0.618274 -0.784739 -0.043830
vn -0.996717 0.080962 -0.000263
vn -0.985395 -0.170280 -0.000753
vn -0.637548 0.669533 0.381127
vn -0.637548 0.669533 0.381127
vn -0.985395 -0.170280 -0.000753
vn -0.897113 0.262730 0.355193
vn -0.647846 -0.667368 0.367308
vn -0.647846 -0.667368 0.367308
vn -0.985395 -0.170280 -0.000753
vn -0.985395 -0.170280 -0.000753
vn -0.647846 -0.667368 0.367308
vn -0.897113 0.262730 0.355193
vn -0.373752 -0.668344 0.643137
vn 0.000652 0.078567 0.996909
vn -0.647846 -0.667368 0.367308
vn -0.647846 -0.667368 0.367308
vn 0.000652 0.078567 0.996909
vn -0.897113 0.262730 0.355193
vn 0.000652 0.078567 0.996909
vn -0.637548 0.669533 0.381127
vn 0.000652 0.078567 0.996909
vn 0.000652 0.078567 0.996909
vn -0.637548 0.669533 0.381127
vn -0.897113 0.262730 0.355193
vn 0.647546 -0.672749 0.357900
vn 0.996937 0.078193 0.001571
vn 0.422746 -0.685011 0.593335
vn 0.422746 -0.685011 0.593335
vn 0.996937 0.078193 0.001571
vn 0.882072 -0.328490 0.337703
vn 0.996937 0.078193 0.001571
vn 0.425588 0.683809 0.592690
vn 0.996937 0.078193 0.001571
vn 0.996937 0.078193 0.001571
vn 0.425588 0.683809 0.592690
vn 0.882072 -0.328490 0.337703
vn 0.000652 0.078567 0.996909
vn 0.000652 0.078566 0.996909
vn 0.425588 0.683809 0.592690
vn 0.425588 0.683809 0.592690
vn 0.000652 0.078566 0.996909
vn 0.882072 -0.328490 0.337703
vn 0.422746 -0.685011 0.593335
vn 0.422746 -0.685011 0.593335
vn 0.000652 0.078566 0.996909
vn 0.000652 0.078566 0.996909
vn 0.422746 -0.685011 0.593335
vn 0.882072 -0.328490 0.337703
vn -0.388024 0.670453 0.632401
vn 0.425588 0.683809 0.592690
vn -0.637548 0.669533 0.381127
vn -0.637548 0.669533 0.381127
vn 0.425588 0.683809 0.592690
vn 0.082774 0.829664 0.552093
vn 0.631359 0.673728 0.384025
vn 0.425176 0.685924 -0.590537
vn 0.425588 0.683809 0.592690
vn 0.425588 0.683809 0.592690
vn 0.425176 0.685924 -0.590537
vn 0.082774 0.829664 0.552093
vn 0.425176 0.685924 -0.590537
vn -0.579330 0.691938 -0.430812
vn 0.425176 0.685924 -0.590537
vn 0.425176 0.685924 -0.590537
vn -0.579330 0.691938 -0.430812
vn 0.082774 0.829664 0.552093
vn -0.637548 0.669533 0.381127
vn -0.637548 0.669533 0.381127
vn -0.579330 0.691938 -0.430812
vn -0.579330 0.691938 -0.430812
vn -0.637548 0.669533 0.381127
vn 0.082774 0.829664 0.552093
vn -0.588069 -0.690182 -0.421692
vn -0.985395 -0.170280 -0.000753
vn -0.355957 -0.678223 -0.642890
vn -0.355957 -0.678223 -0.642890
vn -0.985395 -0.170280 -0.000753
vn -0.902570 -0.310177 -0.298593
vn -0.996717 0.080962 -0.000263
vn -0.579330 0.691938 -0.430812
vn -0.985395 -0.170280 -0.000753
vn -0.985395 -0.170280 -0.000753
vn -0.579330 0.691938 -0.430812
vn -0.902570 -0.310177 -0.298593
vn -0.444805 0.685733 -0.576124
vn 0.000925 -0.169803 -0.985478
vn -0.579330 0.691938 -0.430812
vn -0.579330 0.691938 -0.430812
vn 0.000925 -0.169803 -0.985478
vn -0.902570 -0.310177 -0.298593
vn -0.355957 -0.678223 -0.642890
vn -0.355957 -0.678223 -0.642890
vn 0.000925 -0.169803 -0.985478
vn 0.000925 -0.169803 -0.985478
vn -0.355957 -0.678223 -0.642890
vn -0.902570 -0.310177 -0.298593
vn 0.439317 -0.678434 -0.588836
vn 0.000925 -0.169803 -0.985478
vn 0.589692 -0.680556 -0.434865
vn 0.589692 -0.680556 -0.434865
vn 0.000925 -0.169803 -0.985478
vn 0.290435 -0.293128 -0.910892
vn 0.425176 0.685924 -0.590537
vn 0.425176 0.685924 -0.590537
vn 0.000925 -0.169803 -0.985478
vn 0.000925 -0.169803 -0.985478
vn 0.425176 0.685924 -0.590537
vn 0.290435 -0.293128 -0.910892
vn 0.996937 0.078193 0.001571
vn 0.996937 0.078193 0.001571
vn 0.425176 0.685924 -0.590537
vn 0.425176 0.685924 -0.590537
vn 0.996937 0.078193 0.001571
vn 0.290435 -0.293128 -0.910892
vn 0.589692 -0.680556 -0.434865
vn 0.589692 -0.680556 -0.434865
vn 0.996937 0.078193 0.001571
vn 0.996937 0.078193 0.001571
vn 0.589692 -0.680556 -0.434865
vn 0.290435 -0.293128 -0.910892
s off
g sm_K8_DiceSet_03
usemtl sm_K12_DiceSet_02SG
f 1/1/1 39/2/2 2/3/3
f 2/3/4 39/2/5 38/4/6
f 1/5/7 8/6/8 39/7/9
f 39/7/10 8/6/11 40/8/12
f 3/9/13 47/10/14 4/11/15
f 4/11/16 47/10/17 46/12/18
f 3/13/19 2/3/20 47/14/21
f 47/14/22 2/3/23 48/15/24
f 5/16/25 23/17/26 6/18/27
f 6/18/28 23/17/29 22/19/30
f 5/20/31 4/11/32 23/21/33
f 23/21/34 4/11/35 24/22/36
f 7/23/37 11/24/38 8/6/39
f 8/6/40 11/24/41 10/25/42
f 7/26/43 6/18/44 11/27/45
f 11/27/46 6/18/47 12/28/48
f 10/25/49 9/29/50 40/8/51
f 40/8/52 9/29/53 33/30/54
f 9/31/55 16/32/56 33/33/57
f 33/33/58 16/32/59 34/34/60
f 14/35/61 13/36/62 20/37/63
f 20/37/64 13/36/65 21/38/66
f 13/39/67 12/28/68 21/40/69
f 21/40/70 12/28/71 22/19/72
f 16/32/73 15/41/74 30/42/75
f 30/42/76 15/41/77 31/43/78
f 14/35/79 32/44/80 15/45/81
f 15/45/82 32/44/83 31/46/84
f 18/47/85 17/48/86 44/49/87
f 44/49/88 17/48/89 45/50/90
f 17/51/91 24/22/92 45/52/93
f 45/52/94 24/22/95 46/12/96
f 20/37/97 19/53/98 32/44/99
f 32/44/100 19/53/101 25/54/102
f 18/47/103 26/55/104 19/56/105
f 19/56/106 26/55/107 25/57/108
f 27/58/109 43/59/110 28/60/111
f 28/60/112 43/59/113 42/61/114
f 27/62/115 26/55/116 43/63/117
f 43/63/118 26/55/119 44/49/120
f 29/64/121 35/65/122 30/42/123
f 30/42/124 35/65/125 34/34/126
f 29/66/127 28/60/128 35/67/129
f 35/67/130 28/60/131 36/68/132
f 38/4/133 37/69/134 48/15/135
f 48/15/136 37/69/137 41/70/138
f 37/71/139 36/68/140 41/72/141
f 41/72/142 36/68/143 42/61/144
f 34/34/145 16/32/146 30/42/147
f 32/44/148 14/35/149 20/37/150
f 36/68/151 28/60/152 42/61/153
f 26/55/154 18/47/155 44/49/156
f 12/28/157 6/18/158 22/19/159
f 24/22/160 4/11/161 46/12/162
f 2/3/163 38/4/164 48/15/165
f 8/6/166 10/25/167 40/8/168
f 8/6/169 1/5/170 7/23/171
f 7/23/172 1/5/173 49/73/174
f 2/3/175 3/13/176 1/1/177
f 1/1/178 3/13/179 49/74/180
f 4/11/181 5/20/182 3/9/183
f 3/9/184 5/20/185 49/75/186
f 6/18/187 7/26/188 5/16/189
f 5/16/190 7/26/191 49/76/192
f 16/32/193 9/31/194 15/41/195
f 15/41/196 9/31/197 50/77/198
f 10/25/199 11/24/200 9/29/201
f 9/29/202 11/24/203 50/78/204
f 12/28/205 13/39/206 11/27/207
f 11/27/208 13/39/209 50/79/210
f 14/35/211 15/45/212 13/36/213
f 13/36/214 15/45/215 50/80/216
f 24/22/217 17/51/218 23/21/219
f 23/21/220 17/51/221 51/81/222
f 18/47/223 19/56/224 17/48/225
f 17/48/226 19/56/227 51/82/228
f 20/37/229 21/38/230 19/53/231
f 19/53/232 21/38/233 51/83/234
f 22/19/235 23/17/236 21/40/237
f 21/40/238 23/17/239 51/84/240
f 32/44/241 25/54/242 31/46/243
f 31/46/244 25/54/245 52/85/246
f 26/55/247 27/62/248 25/57/249
f 25/57/250 27/62/251 52/86/252
f 28/60/253 29/66/254 27/58/255
f 27/58/256 29/66/257 52/87/258
f 30/42/259 31/43/260 29/64/261
f 29/64/262 31/43/263 52/88/264
f 40/8/265 33/30/266 39/7/267
f 39/7/268 33/30/269 53/89/270
f 34/34/271 35/65/272 33/33/273
f 33/33/274 35/65/275 53/90/276
f 36/68/277 37/71/278 35/67/279
f 35/67/280 37/71/281 53/91/282
f 38/4/283 39/2/284 37/69/285
f 37/69/286 39/2/287 53/92/288
f 48/15/289 41/70/290 47/14/291
f 47/14/292 41/70/293 54/93/294
f 42/61/295 43/59/296 41/72/297
f 41/72/298 43/59/299 54/94/300
f 44/49/301 45/50/302 43/63/303
f 43/63/304 45/50/305 54/95/306
f 46/12/307 47/10/308 45/52/309
f 45/52/310 47/10/311 54/96/312
